HIERARCHY
ROOT mixamorig:Hips
{
	OFFSET 0.000000 104.274902 0.000000
	CHANNELS 6 Xposition Yposition Zposition Xrotation Yrotation Zrotation
	JOINT mixamorig:Spine
	{
		OFFSET 0.000000 10.181549 0.131524
		CHANNELS 6 Xposition Yposition Zposition Xrotation Yrotation Zrotation
		JOINT mixamorig:Spine1
		{
			OFFSET 0.000000 9.893990 -1.470706
			CHANNELS 3 Xrotation Yrotation Zrotation
			JOINT mixamorig:Spine2
			{
				OFFSET 0.000000 9.220787 -1.370637
				CHANNELS 3 Xrotation Yrotation Zrotation
				JOINT mixamorig:Neck
				{
					OFFSET 0.000000 16.740372 -2.049022
					CHANNELS 6 Xposition Yposition Zposition Xrotation Yrotation Zrotation
					JOINT mixamorig:Head
					{
						OFFSET 0.000000 9.617859 1.684976
						CHANNELS 6 Xposition Yposition Zposition Xrotation Yrotation Zrotation
						JOINT mixamorig:HeadTop_End
						{
							OFFSET 0.000000 22.037384 7.501072
							CHANNELS 6 Xposition Yposition Zposition Xrotation Yrotation Zrotation
							End Site
							{
								OFFSET 0.000000 23.106567 -2.828246
							}
						}
					}
				}
				JOINT mixamorig:RightShoulder
				{
					OFFSET -4.570000 11.014877 -2.160840
					CHANNELS 6 Xposition Yposition Zposition Xrotation Yrotation Zrotation
					JOINT mixamorig:RightArm
					{
						OFFSET -10.592867 -0.524796 -2.232105
						CHANNELS 3 Xrotation Yrotation Zrotation
						JOINT mixamorig:RightForeArm
						{
							OFFSET -27.841497 0.000000 -0.000002
							CHANNELS 3 Xrotation Yrotation Zrotation
							JOINT mixamorig:RightHand
							{
								OFFSET -28.328812 0.000000 -0.000001
								CHANNELS 3 Xrotation Yrotation Zrotation
								JOINT mixamorig:RightHandThumb1
								{
									OFFSET -2.464798 -1.573990 2.681911
									CHANNELS 6 Xposition Yposition Zposition Xrotation Yrotation Zrotation
									JOINT mixamorig:RightHandThumb2
									{
										OFFSET -3.244781 -1.873383 1.873376
										CHANNELS 3 Xrotation Yrotation Zrotation
										JOINT mixamorig:RightHandThumb3
										{
											OFFSET -2.646263 -1.527817 1.527818
											CHANNELS 6 Xposition Yposition Zposition Xrotation Yrotation Zrotation
											JOINT mixamorig:RightHandThumb4
											{
												OFFSET -1.994591 -1.151581 1.151575
												CHANNELS 6 Xposition Yposition Zposition Xrotation Yrotation Zrotation
												End Site
												{
													OFFSET -1.860176 -1.142715 1.365483
												}
											}
										}
									}
								}
								JOINT mixamorig:RightHandIndex1
								{
									OFFSET -9.108299 -0.517883 2.259803
									CHANNELS 6 Xposition Yposition Zposition Xrotation Yrotation Zrotation
									JOINT mixamorig:RightHandIndex2
									{
										OFFSET -3.699997 0.000000 0.000000
										CHANNELS 3 Xrotation Yrotation Zrotation
										JOINT mixamorig:RightHandIndex3
										{
											OFFSET -2.850006 0.000000 0.000000
											CHANNELS 3 Xrotation Yrotation Zrotation
											JOINT mixamorig:RightHandIndex4
											{
												OFFSET -2.772194 0.000000 0.000000
												CHANNELS 3 Xrotation Yrotation Zrotation
												End Site
												{
													OFFSET -2.772202 0.000000 -0.000484
												}
											}
										}
									}
								}
								JOINT mixamorig:RightHandMiddle1
								{
									OFFSET -9.532501 0.000000 -0.000000
									CHANNELS 6 Xposition Yposition Zposition Xrotation Yrotation Zrotation
									JOINT mixamorig:RightHandMiddle2
									{
										OFFSET -3.699997 0.000000 0.000000
										CHANNELS 3 Xrotation Yrotation Zrotation
										JOINT mixamorig:RightHandMiddle3
										{
											OFFSET -2.949997 0.000000 0.000000
											CHANNELS 3 Xrotation Yrotation Zrotation
											JOINT mixamorig:RightHandMiddle4
											{
												OFFSET -2.946594 0.000000 0.000000
												CHANNELS 3 Xrotation Yrotation Zrotation
												End Site
												{
													OFFSET -2.946602 0.000000 -0.000982
												}
											}
										}
									}
								}
								JOINT mixamorig:RightHandRing1
								{
									OFFSET -9.103600 -0.043106 -1.865100
									CHANNELS 6 Xposition Yposition Zposition Xrotation Yrotation Zrotation
									JOINT mixamorig:RightHandRing2
									{
										OFFSET -3.379303 0.000000 0.000000
										CHANNELS 3 Xrotation Yrotation Zrotation
										JOINT mixamorig:RightHandRing3
										{
											OFFSET -2.889694 0.000000 0.000000
											CHANNELS 3 Xrotation Yrotation Zrotation
											JOINT mixamorig:RightHandRing4
											{
												OFFSET -2.638802 0.000000 0.000000
												CHANNELS 3 Xrotation Yrotation Zrotation
												End Site
												{
													OFFSET -2.638802 0.000000 0.004218
												}
											}
										}
									}
								}
								JOINT mixamorig:RightHandPinky1
								{
									OFFSET -8.076698 -0.486725 -3.806299
									CHANNELS 6 Xposition Yposition Zposition Xrotation Yrotation Zrotation
									JOINT mixamorig:RightHandPinky2
									{
										OFFSET -3.600006 0.000000 0.000000
										CHANNELS 3 Xrotation Yrotation Zrotation
										JOINT mixamorig:RightHandPinky3
										{
											OFFSET -2.099998 0.000000 0.000000
											CHANNELS 3 Xrotation Yrotation Zrotation
											JOINT mixamorig:RightHandPinky4
											{
												OFFSET -2.115791 0.000000 0.000000
												CHANNELS 3 Xrotation Yrotation Zrotation
												End Site
												{
													OFFSET -2.115799 0.000000 0.000174
												}
											}
										}
									}
								}
							}
						}
					}
				}
				JOINT mixamorig:LeftShoulder
				{
					OFFSET 4.570400 11.014679 -2.160816
					CHANNELS 6 Xposition Yposition Zposition Xrotation Yrotation Zrotation
					JOINT mixamorig:LeftArm
					{
						OFFSET 10.592373 -0.524597 -2.232116
						CHANNELS 3 Xrotation Yrotation Zrotation
						JOINT mixamorig:LeftForeArm
						{
							OFFSET 27.841488 0.000000 0.000001
							CHANNELS 3 Xrotation Yrotation Zrotation
							JOINT mixamorig:LeftHand
							{
								OFFSET 28.328808 0.000000 -0.000000
								CHANNELS 3 Xrotation Yrotation Zrotation
								JOINT mixamorig:LeftHandThumb1
								{
									OFFSET 2.466103 -1.576202 2.681698
									CHANNELS 6 Xposition Yposition Zposition Xrotation Yrotation Zrotation
									JOINT mixamorig:LeftHandThumb2
									{
										OFFSET 3.243317 -1.872528 1.872530
										CHANNELS 3 Xrotation Yrotation Zrotation
										JOINT mixamorig:LeftHandThumb3
										{
											OFFSET 2.647881 -1.528763 1.528754
											CHANNELS 6 Xposition Yposition Zposition Xrotation Yrotation Zrotation
											JOINT mixamorig:LeftHandThumb4
											{
												OFFSET 1.998924 -1.154083 1.154080
												CHANNELS 6 Xposition Yposition Zposition Xrotation Yrotation Zrotation
												End Site
												{
													OFFSET 1.884041 -1.149155 1.337651
												}
											}
										}
									}
								}
								JOINT mixamorig:LeftHandIndex1
								{
									OFFSET 9.109299 -0.518005 2.259900
									CHANNELS 6 Xposition Yposition Zposition Xrotation Yrotation Zrotation
									JOINT mixamorig:LeftHandIndex2
									{
										OFFSET 3.699997 0.000000 0.000000
										CHANNELS 3 Xrotation Yrotation Zrotation
										JOINT mixamorig:LeftHandIndex3
										{
											OFFSET 2.850006 0.000000 0.000000
											CHANNELS 3 Xrotation Yrotation Zrotation
											JOINT mixamorig:LeftHandIndex4
											{
												OFFSET 2.774895 0.000000 0.000000
												CHANNELS 3 Xrotation Yrotation Zrotation
												End Site
												{
													OFFSET 2.774902 0.000000 -0.000072
												}
											}
										}
									}
								}
								JOINT mixamorig:LeftHandMiddle1
								{
									OFFSET 9.533401 0.000000 0.000000
									CHANNELS 6 Xposition Yposition Zposition Xrotation Yrotation Zrotation
									JOINT mixamorig:LeftHandMiddle2
									{
										OFFSET 3.699997 0.000000 0.000000
										CHANNELS 3 Xrotation Yrotation Zrotation
										JOINT mixamorig:LeftHandMiddle3
										{
											OFFSET 2.949997 0.000000 0.000000
											CHANNELS 3 Xrotation Yrotation Zrotation
											JOINT mixamorig:LeftHandMiddle4
											{
												OFFSET 2.952896 0.000000 0.000000
												CHANNELS 3 Xrotation Yrotation Zrotation
												End Site
												{
													OFFSET 2.952904 0.000000 0.000165
												}
											}
										}
									}
								}
								JOINT mixamorig:LeftHandRing1
								{
									OFFSET 9.104500 -0.042999 -1.865101
									CHANNELS 6 Xposition Yposition Zposition Xrotation Yrotation Zrotation
									JOINT mixamorig:LeftHandRing2
									{
										OFFSET 3.149994 0.000000 0.000000
										CHANNELS 3 Xrotation Yrotation Zrotation
										JOINT mixamorig:LeftHandRing3
										{
											OFFSET 2.950005 0.000000 0.000000
											CHANNELS 3 Xrotation Yrotation Zrotation
											JOINT mixamorig:LeftHandRing4
											{
												OFFSET 2.644302 0.000000 0.000000
												CHANNELS 3 Xrotation Yrotation Zrotation
												End Site
												{
													OFFSET 2.644302 0.000000 0.000083
												}
											}
										}
									}
								}
								JOINT mixamorig:LeftHandPinky1
								{
									OFFSET 8.077805 -0.486893 -3.806302
									CHANNELS 6 Xposition Yposition Zposition Xrotation Yrotation Zrotation
									JOINT mixamorig:LeftHandPinky2
									{
										OFFSET 3.600006 0.000000 0.000000
										CHANNELS 3 Xrotation Yrotation Zrotation
										JOINT mixamorig:LeftHandPinky3
										{
											OFFSET 2.099998 0.000000 0.000000
											CHANNELS 3 Xrotation Yrotation Zrotation
											JOINT mixamorig:LeftHandPinky4
											{
												OFFSET 2.125496 0.000000 0.000000
												CHANNELS 3 Xrotation Yrotation Zrotation
												End Site
												{
													OFFSET 2.125504 0.000000 -0.001254
												}
											}
										}
									}
								}
							}
						}
					}
				}
			}
		}
	}
	JOINT mixamorig:RightUpLeg
	{
		OFFSET -8.207800 -6.751701 -1.599544
		CHANNELS 6 Xposition Yposition Zposition Xrotation Yrotation Zrotation
		JOINT mixamorig:RightLeg
		{
			OFFSET 0.000004 -44.370152 0.345934
			CHANNELS 3 Xrotation Yrotation Zrotation
			JOINT mixamorig:RightFoot
			{
				OFFSET 0.000004 -44.423664 -3.043535
				CHANNELS 3 Xrotation Yrotation Zrotation
				JOINT mixamorig:RightToeBase
				{
					OFFSET 0.000001 -8.728691 10.710592
					CHANNELS 3 Xrotation Yrotation Zrotation
					JOINT mixamorig:RightToe_End
					{
						OFFSET 0.000000 -0.000665 9.278101
						CHANNELS 3 Xrotation Yrotation Zrotation
						End Site
						{
							OFFSET 0.000000 -0.000665 9.278103
						}
					}
				}
			}
		}
	}
	JOINT mixamorig:LeftUpLeg
	{
		OFFSET 8.207800 -6.751701 -1.599544
		CHANNELS 6 Xposition Yposition Zposition Xrotation Yrotation Zrotation
		JOINT mixamorig:LeftLeg
		{
			OFFSET 0.000004 -44.370037 0.346940
			CHANNELS 3 Xrotation Yrotation Zrotation
			JOINT mixamorig:LeftFoot
			{
				OFFSET 0.000004 -44.423611 -3.044388
				CHANNELS 3 Xrotation Yrotation Zrotation
				JOINT mixamorig:LeftToeBase
				{
					OFFSET 0.000001 -8.728690 10.710592
					CHANNELS 3 Xrotation Yrotation Zrotation
					JOINT mixamorig:LeftToe_End
					{
						OFFSET 0.000000 -0.000680 9.278101
						CHANNELS 3 Xrotation Yrotation Zrotation
						End Site
						{
							OFFSET 0.000000 -0.000680 9.278101
						}
					}
				}
			}
		}
	}
}
MOTION
Frames: 4
Frame Time: 0.033333
1.642911 77.549194 6.382823 10.636965 15.301686 -3.884671 -0.000000 10.181573 0.131523 12.297668 3.519069 -1.364488 7.440916 4.387404 0.666525 7.336321 5.043643 -0.042009 -0.000002 16.740370 -2.049016 12.130060 -4.811461 -5.477955 -0.000004 9.617853 1.684975 -19.029974 -23.534260 -14.174550 -0.000006 22.037369 7.501070 0.000000 0.000001 0.000001 -4.570005 11.014874 -2.160839 3.958253 15.453008 -19.394117 -68.737630 -2.745334 40.452079 -0.000139 76.752946 0.000184 -8.520057 -11.541390 -18.686475 -2.464805 -1.573994 2.681900 -12.685956 13.571070 -26.086849 4.637192 -8.634109 -0.225383 -2.646279 -1.527802 1.527809 -9.268782 23.269056 -1.316741 -1.994597 -1.151586 1.151587 0.000000 -0.000001 -0.000000 -9.108294 -0.517886 2.259795 6.494031 -6.933435 86.242661 7.132163 -6.945770 91.520724 1.776380 -4.646353 41.827600 -0.000002 -0.000003 0.000002 -9.532497 0.000002 -0.000008 5.991709 -6.882395 82.068152 7.245588 -6.941885 92.458816 1.776111 -4.646048 41.824315 -0.000000 0.000003 -0.000001 -9.103601 -0.043109 -1.865111 6.087272 -6.894935 82.864825 7.100248 -6.946576 91.256662 1.900652 -4.781109 43.339726 0.000000 0.000002 0.000002 -8.076703 -0.486725 -3.806305 5.810592 -6.857880 78.888384 6.698796 -6.943763 87.937641 1.951783 -4.834555 43.949979 0.000002 -0.000001 0.000001 4.570399 11.014697 -2.160811 -0.865179 -17.473596 1.181591 -16.824009 -35.565273 -72.115473 0.000016 -65.455779 0.000029 58.290959 14.216227 44.107343 2.466099 -1.576211 2.681699 5.250319 -1.002299 18.723722 13.423583 25.808689 -6.803676 2.647884 -1.528745 1.528749 0.581424 19.404412 1.876109 1.998914 -1.154093 1.154067 0.000000 0.000002 0.000001 9.109292 -0.518007 2.259899 -2.570899 -5.714130 -20.873480 0.205840 1.674371 -14.017430 0.000000 0.007730 -0.064076 -0.000000 0.000002 -0.000003 9.533399 0.000013 -0.000001 -1.322495 -3.715901 -16.147609 0.131941 1.344265 -11.212164 0.009960 0.371157 -3.077004 -0.000001 -0.000000 -0.000000 9.104494 -0.042992 -1.865101 -0.582243 -1.659383 -13.493756 0.208481 1.684927 -14.107875 0.004920 -0.260684 2.160689 -0.000000 -0.000000 0.000003 8.077802 -0.486899 -3.806301 0.082367 1.188855 -14.185388 0.056314 -3.103088 -8.418328 0.001543 -0.146124 1.210983 0.000001 0.000000 -0.000001 -8.207808 -6.751694 -1.599548 -81.349739 -9.449615 -34.112594 77.201703 5.718554 -1.176966 7.819666 0.075442 0.737853 -5.926151 -0.119451 3.632863 -0.000001 0.000000 -0.000000 8.207799 -6.751690 -1.599556 -81.580524 0.771993 4.648299 74.519563 -0.511013 1.335827 10.772550 0.072516 1.519583 -2.898932 0.076787 -2.590832 0.000001 0.000002 -0.000000 
1.685179 77.467873 6.358996 10.872532 15.399425 -3.768178 -0.000000 10.181554 0.131526 12.333941 3.536248 -1.409410 7.480456 4.404468 0.767614 7.362718 5.110666 0.050158 -0.000001 16.740377 -2.049024 12.384482 -4.932818 -5.536523 -0.000006 9.617828 1.684965 -18.594597 -24.057987 -13.801842 0.000006 22.037369 7.501072 0.000001 0.000000 -0.000000 -4.570004 11.014888 -2.160849 3.883979 15.366520 -19.064996 -69.224787 -5.365684 40.565924 -0.000602 85.009935 0.000692 -7.600930 -11.445615 -17.852622 -2.464797 -1.574008 2.681907 -12.623218 13.337395 -26.216184 4.637190 -8.634093 -0.225367 -2.646250 -1.527811 1.527822 -9.268313 23.266908 -1.316259 -1.994597 -1.151582 1.151560 0.000001 -0.000003 -0.000000 -9.108309 -0.517873 2.259801 6.532465 -6.935839 86.561159 7.146783 -6.945401 91.641536 1.778962 -4.649233 41.859467 0.000006 -0.000002 0.000001 -9.532517 0.000010 -0.000009 6.063830 -6.891969 82.669727 7.234057 -6.942379 92.363535 1.780063 -4.650453 41.873144 0.000001 0.000001 0.000002 -9.103582 -0.043101 -1.865108 6.134443 -6.900623 83.257629 7.106966 -6.946400 91.312287 1.895069 -4.775214 43.272756 0.000003 0.000001 -0.000000 -8.076705 -0.486723 -3.806300 5.790884 -6.851626 80.277980 6.701236 -6.943835 87.957735 1.958187 -4.841145 44.025805 0.000003 0.000004 -0.000000 4.570399 11.014687 -2.160816 -0.943884 -17.546587 0.884628 -16.790094 -35.023567 -72.326874 0.000046 -66.152991 0.000044 58.988410 14.012255 43.721509 2.466095 -1.576198 2.681695 5.250317 -1.002297 18.723719 13.423581 25.808683 -6.803679 2.647879 -1.528741 1.528751 0.581424 19.404407 1.876112 1.998932 -1.154091 1.154074 -0.000001 0.000001 -0.000000 9.109303 -0.518007 2.259900 -2.570899 -5.714130 -20.873482 0.205841 1.674371 -14.017431 0.000001 0.007730 -0.064071 -0.000000 0.000002 -0.000001 9.533401 0.000013 -0.000001 -1.322497 -3.715900 -16.147609 0.131940 1.344265 -11.212164 0.009959 0.371158 -3.077004 -0.000000 -0.000001 -0.000002 9.104498 -0.042993 -1.865101 -0.582246 -1.659383 -13.493757 0.208481 1.684928 -14.107875 0.004920 -0.260685 2.160689 -0.000002 0.000000 -0.000001 8.077802 -0.486900 -3.806304 0.082366 1.188855 -14.185388 0.056313 -3.103088 -8.418329 0.001543 -0.146124 1.210982 -0.000001 -0.000000 0.000000 -8.207807 -6.751697 -1.599540 -81.710837 -9.250792 -34.336526 77.311792 5.877111 -1.192357 7.744921 0.071124 0.679497 -5.848370 -0.118439 3.672698 0.000000 0.000000 0.000000 8.207798 -6.751701 -1.599547 -81.870800 0.978197 4.592301 74.551590 -0.598041 1.209285 10.819073 0.078807 1.607942 -2.909169 0.077185 -2.523279 0.000000 -0.000001 0.000001 
1.694150 77.480438 6.387327 11.136615 15.402852 -3.731056 0.000000 10.181567 0.131522 12.365643 3.564135 -1.434830 7.489265 4.433477 0.849427 7.361795 5.178205 0.120775 -0.000001 16.740376 -2.049032 12.488597 -5.017002 -5.662330 -0.000003 9.617846 1.684965 -18.223332 -24.487688 -13.500684 0.000002 22.037369 7.501083 0.000001 0.000001 -0.000000 -4.569997 11.014868 -2.160857 3.809874 15.301811 -18.723915 -69.449684 -7.784617 41.361413 0.000823 92.997465 -0.000806 -6.433247 -11.203792 -16.944885 -2.464812 -1.574003 2.681913 -12.629530 13.148341 -26.103701 4.637180 -8.634118 -0.225397 -2.646254 -1.527799 1.527803 -9.305675 23.380692 -1.310818 -1.994594 -1.151580 1.151573 -0.000000 -0.000003 0.000001 -9.108303 -0.517895 2.259805 6.522626 -6.935231 86.479778 7.161524 -6.944980 91.763455 1.803554 -4.676426 42.161812 0.000005 -0.000000 -0.000002 -9.532518 -0.000002 0.000003 6.071414 -6.892961 82.732879 7.232920 -6.942432 92.353802 1.779751 -4.650076 41.869237 0.000005 0.000000 0.000001 -9.103621 -0.043112 -1.865101 6.145716 -6.901939 83.351626 7.098037 -6.946631 91.238377 1.893255 -4.773287 43.250923 0.000003 -0.000002 0.000004 -8.076715 -0.486728 -3.806302 5.805562 -6.854180 80.222020 6.709560 -6.944147 88.026720 1.957715 -4.840671 44.020235 0.000003 -0.000005 0.000003 4.570401 11.014693 -2.160825 -1.099801 -17.689965 0.300960 -16.424739 -34.461853 -72.202674 0.000021 -66.819870 0.000017 59.724438 13.773489 43.350890 2.466098 -1.576185 2.681698 5.250318 -1.002294 18.723722 13.423582 25.808684 -6.803681 2.647885 -1.528749 1.528745 0.581424 19.404407 1.876106 1.998921 -1.154078 1.154074 -0.000000 -0.000003 0.000001 9.109292 -0.518022 2.259899 -2.570899 -5.714131 -20.873482 0.205842 1.674371 -14.017430 0.000001 0.007730 -0.064071 -0.000001 0.000000 -0.000003 9.533409 0.000013 -0.000001 -1.322495 -3.715900 -16.147604 0.131938 1.344265 -11.212170 0.009959 0.371158 -3.077004 0.000000 -0.000001 0.000001 9.104498 -0.042993 -1.865103 -0.582244 -1.659383 -13.493757 0.208481 1.684928 -14.107874 0.004921 -0.260684 2.160689 0.000001 0.000000 -0.000001 8.077794 -0.486900 -3.806302 0.082367 1.188855 -14.185387 0.056313 -3.103088 -8.418330 0.001541 -0.146124 1.210981 0.000001 0.000000 0.000002 -8.207802 -6.751685 -1.599539 -81.926418 -9.116890 -34.340511 77.289485 5.934793 -1.188925 7.721343 0.069468 0.655306 -5.830992 -0.120560 3.722950 -0.000001 -0.000000 -0.000000 8.207800 -6.751694 -1.599548 -82.091723 1.193733 4.748371 74.489073 -0.784755 1.083930 10.875023 0.082425 1.637388 -2.943969 0.078522 -2.372605 -0.000000 0.000000 0.000000 
1.682127 77.557030 6.455811 11.393583 15.322556 -3.743683 -0.000001 10.181550 0.131526 12.383927 3.603527 -1.453607 7.488302 4.476856 0.916880 7.352512 5.253204 0.176449 -0.000000 16.740366 -2.049028 12.402457 -5.021164 -5.890427 -0.000001 9.617838 1.684978 -17.990197 -24.643688 -13.326903 -0.000005 22.037384 7.501068 -0.000001 0.000000 0.000001 -4.569998 11.014890 -2.160851 3.752550 15.308674 -18.433258 -68.950937 -9.734839 42.243764 0.000291 100.392620 -0.000237 -5.163554 -10.876274 -16.315473 -2.464794 -1.573995 2.681904 -12.610911 13.127796 -26.149290 4.637187 -8.634111 -0.225379 -2.646268 -1.527796 1.527812 -9.337025 23.475596 -1.306119 -1.994598 -1.151583 1.151577 0.000000 0.000002 0.000003 -9.108304 -0.517881 2.259798 6.563193 -6.937605 86.815577 7.184043 -6.944242 91.949591 1.801866 -4.674582 42.141417 0.000003 0.000001 -0.000000 -9.532528 -0.000000 -0.000004 6.116060 -6.898445 83.104681 7.235922 -6.942308 92.378923 1.776791 -4.646813 41.832593 0.000003 0.000002 0.000002 -9.103611 -0.043108 -1.865108 6.164598 -6.904110 83.508584 7.109596 -6.946348 91.334061 1.883290 -4.762694 43.130903 -0.000002 -0.000003 0.000000 -8.076694 -0.486717 -3.806299 5.685011 -6.834881 80.832249 6.712479 -6.944229 88.050837 1.963093 -4.846199 44.083940 -0.000001 -0.000001 0.000002 4.570401 11.014673 -2.160821 -1.297087 -17.841304 -0.441715 -15.848957 -33.967303 -71.815710 -0.000018 -67.433433 -0.000018 60.405346 13.542126 43.034563 2.466091 -1.576207 2.681698 5.250318 -1.002297 18.723724 13.423579 25.808683 -6.803677 2.647884 -1.528749 1.528746 0.581424 19.404409 1.876106 1.998913 -1.154111 1.154077 0.000001 -0.000001 0.000001 9.109292 -0.518001 2.259899 -2.570900 -5.714130 -20.873483 0.205840 1.674372 -14.017432 0.000003 0.007730 -0.064070 0.000000 0.000001 -0.000003 9.533395 0.000009 -0.000000 -1.322497 -3.715901 -16.147609 0.131940 1.344265 -11.212166 0.009959 0.371158 -3.077004 0.000000 -0.000000 -0.000000 9.104506 -0.042993 -1.865100 -0.582244 -1.659383 -13.493756 0.208482 1.684927 -14.107875 0.004921 -0.260684 2.160686 0.000000 0.000000 0.000001 8.077802 -0.486894 -3.806304 0.082365 1.188855 -14.185389 0.056315 -3.103087 -8.418329 0.001543 -0.146124 1.210981 0.000001 -0.000000 0.000002 -8.207811 -6.751701 -1.599546 -82.030087 -9.046711 -34.172802 77.180994 5.857002 -1.191287 7.739639 0.069810 0.631144 -5.859475 -0.125853 3.806117 0.000000 -0.000001 -0.000000 8.207798 -6.751701 -1.599549 -82.236379 1.381065 5.013718 74.375023 -0.979247 0.988548 10.907386 0.082854 1.617552 -2.981493 0.079895 -2.204520 -0.000000 -0.000001 0.000001 
